<svg xmlns="http://www.w3.org/2000/svg" width="1671.572" height="1081" viewBox="0 0 1671.572 1081"><defs><style>.a{opacity:1.0;}.b{fill:#ffffff;}</style></defs><g class="a"><path class="b" d="M835.813,0C374.225,0,0,241.965,0,540.5S374.225,1081,835.813,1081s835.76-241.965,835.76-540.5S1297.4,0,835.813,0Zm0,848.965c-68.665,0-124.654-135.112-128.3-305.243,41.41,3.7,84.511,5.652,128.3,5.652s86.888-1.954,128.245-5.652C960.466,713.642,904.425,848.965,835.813,848.965ZM716.071,408.716C734.769,288.5,781.3,203.3,835.813,203.3S936.8,288.5,955.5,408.716C917.207,412.2,877.117,414,835.813,414S754.365,411.991,716.071,408.716ZM835.813,78.278c-89.793,0-166.117,134.108-194.322,321.3-169.814-26.41-288.6-86.835-288.6-156.926,0-94.652,216.189-171.4,482.927-171.4s482.927,76.641,482.927,171.4c0,70.091-118.685,130.411-288.658,156.926-28.205-187.192-104.529-321.3-194.269-321.3ZM119.847,520.217c0-91.8,35.23-177.42,96.712-251.314a113.611,113.611,0,0,0-1.109,15.846c0,115.463,173.142,213.654,414.631,249.888,0,8.4-.264,16.8-.264,25.3,0,215.08,60.32,397.254,143.616,459.053C407.237,996.7,119.847,781.726,119.847,520.217Zm778.345,498.614c83.243-61.8,143.563-243.972,143.563-459.053v-25.3c241.49-36.234,414.631-134.425,414.631-249.888a122.206,122.206,0,0,0-1.056-15.846c61.429,73.947,96.659,159.726,96.659,251.314C1551.725,781.726,1264.388,996.7,898.192,1018.831Z"/></g></svg>